<svg xmlns="http://www.w3.org/2000/svg" xmlns:xlink="http://www.w3.org/1999/xlink" version="1.1" x="0px" y="0px" viewBox="0 0 1080 1350" enable-background="new 0 0 1080 1080" xml:space="preserve"><g><path d="M540,137.561c-222.261,0-402.439,180.179-402.439,402.439c0,222.262,180.179,402.439,402.439,402.439   c222.262,0,402.439-180.178,402.439-402.439C942.439,317.739,762.262,137.561,540,137.561z M463.482,263.218   c-6.01,1.698-12.085,3.122-18.038,4.886c-1.393,0.314-2.82,0.619-4.237,0.911l3.741-0.765   c-88.636,26.392-164.452,82.489-215.932,156.758c38.467-104.971,124.682-198.018,236.781-213.391   c25.324-3.473,44.256,4.798,46.376,15.104C514.633,238.677,494.328,254.502,463.482,263.218z"/><path d="M441,269.046v0.001l0.196-0.03C441.144,269.027,441,269.036,441,269.046z"/></g><text transform="matrix(1 0 0 1 16.001 1247.5342)" font-family="'MyriadPro-Regular'" font-size="76.4302">Created by Benjamin Sommerlad</text><text x="0" y="1095" fill="#000000" font-size="5px" font-weight="bold" font-family="'Helvetica Neue', Helvetica, Arial-Unicode, Arial, Sans-serif">Created by Benjamin Sommerlad</text><text x="0" y="1100" fill="#000000" font-size="5px" font-weight="bold" font-family="'Helvetica Neue', Helvetica, Arial-Unicode, Arial, Sans-serif">from the Noun Project</text></svg>