<svg version="1" xmlns="http://www.w3.org/2000/svg" width="933.333" height="933.333" viewBox="0 0 700.000000 700.000000"><path d="M13.5 1.9c-4.3 1.9-9 6.7-10.8 11-1.5 3.6-1.8 54.9-.3 55.3.6.2 32.8.3 71.6.3l70.5-.1.3-34.2L145 0H81.3C21.8.1 17.2.2 13.5 1.9zM186.2 34.2l.3 34.2h69.7c38.3.1 70.5-.1 71.5-.4 1.7-.5 1.8-2.5 1.8-34.3V0H186l.2 34.2zM370.7.7c-.2.5-.3 15.8-.3 34.2l.1 33.5h71.8l71.7.1V0h-71.4c-39.3 0-71.7.3-71.9.7zM555 34c0 26.5.3 34 1.3 34.1.6 0 32.8.2 71.4.2 46.1.1 70.4-.1 70.6-.8.2-.6.3-12.5.3-26.5-.1-22.5-.4-25.9-2-29.2-2.4-4.9-7.6-9.4-12.3-10.7C681.8.4 658.5 0 617.8 0H555v34zM1.6 110c-.2.3-.2 15.6-.2 34l.1 33.5 71.8.1 71.7.1V109.4H73.4c-39.3 0-71.7.3-71.8.6zM186 143.6v34.1l71.7-.1 71.8-.1.1-33c0-18.2-.1-33.5-.3-34.1-.3-.7-21.9-1-71.8-1H186v34.2zM370.7 110.4c-.3 1-.1 65.2.2 66.7 0 .4 32.3.6 71.6.6H514V109.4h-71.5c-49.6 0-71.5.3-71.8 1zM555 143.6v34.2l71.8-.2 71.7-.1.1-34.1v-34H555v34.2zM4.4 219l-3.1.5.2 26c.1 15.9.6 27 1.2 28.6 1.8 4.3 6.5 9.1 10.8 11 3.7 1.7 8.1 1.9 67.8 1.9H145v-34c0-31.7-.1-34-1.7-34.1-11.6-.3-136.6-.3-138.9.1zM374.5 218.8l-4 .3v67.4l71.8.3 71.7.2v-34c0-18.7-.3-34-.7-34.1-3.6-.2-135.7-.3-138.8-.1zM559.3 218.8l-4.3.3V287h63.8c59.6 0 64-.2 67.7-1.9 4.3-1.9 9-6.7 10.8-11 .6-1.6 1.1-13 1.2-28.9l.2-26.2-2.6-.1c-11.8-.2-133.6-.3-136.8-.1zM490 370c-39.6 7.3-62 49.5-45.5 85.7 6.8 14.7 18.2 25.9 32.5 31.6 9.1 3.6 13.8 4.5 23.4 4.5 10.2 0 16.2-1.2 24.3-4.8 16.8-7.6 28-19.8 34-37.3 4.1-11.6 3.8-30-.6-40.2-4.6-10.9-7.4-15-15.6-23-7.4-7.4-16.3-12.5-25.9-15.1-6.4-1.8-20.7-2.5-26.6-1.4zM233.9 598.7c-19.5 4-35.9 20-39.8 39.1-2.5 12.3-.4 26.2 5.7 36.5 6.9 11.9 20.8 21.9 34 24.6 7.3 1.5 223.4 1.5 231.8 0 13.7-2.5 28.6-13.2 35.1-25.5 10.3-19.3 7.7-42.7-6.4-58.4-4.8-5.3-15.2-13-17.5-13-.8 0-1.8-.4-2.4-.9-3.6-3.3-9.8-3.5-122.6-3.6-85.8 0-113.2.2-117.9 1.2z"/></svg>